<?xml version="1.0" standalone="no"?><!DOCTYPE svg PUBLIC "-//W3C//DTD SVG 1.1//EN" "http://www.w3.org/Graphics/SVG/1.1/DTD/svg11.dtd"><svg t="1752807047787" class="icon" viewBox="0 0 1122 1024" version="1.1" xmlns="http://www.w3.org/2000/svg" p-id="5642" xmlns:xlink="http://www.w3.org/1999/xlink" width="219.140625" height="200"><path d="M1115.178082 519.013699L561.09589 0 7.013699 519.013699c-7.013699 7.013699-7.013699 21.041096 0 35.068493s28.054795 14.027397 35.068493 0L561.09589 77.150685 1080.109589 561.09589h14.027397c7.013699 0 14.027397 0 21.041096-7.013698 7.013699-7.013699 7.013699-28.054795 0-35.068493z m-168.328767 7.013698c-14.027397 0-28.054795 14.027397-28.054794 28.054795v413.808219H701.369863V680.328767H420.821918v287.561644H203.39726V554.082192c0-14.027397-14.027397-28.054795-28.054794-28.054795s-28.054795 14.027397-28.054795 28.054795v462.904109h322.630137v-287.561643h175.342466v287.561643h322.630137V554.082192c7.013699-14.027397-7.013699-28.054795-21.041096-28.054795z m-189.369863-378.739726h161.315069v140.273973c0 14.027397 14.027397 28.054795 28.054794 28.054794s28.054795-14.027397 28.054795-28.054794V91.178082h-217.424658c-14.027397 0-28.054795 14.027397-28.054794 28.054795s14.027397 28.054795 28.054794 28.054794z m0 0" fill="" p-id="5643"></path></svg>