<?xml version="1.0" standalone="no"?><!DOCTYPE svg PUBLIC "-//W3C//DTD SVG 1.1//EN" "http://www.w3.org/Graphics/SVG/1.1/DTD/svg11.dtd"><svg t="1752734262012" class="icon" viewBox="0 0 1024 1024" version="1.1" xmlns="http://www.w3.org/2000/svg" p-id="7010" xmlns:xlink="http://www.w3.org/1999/xlink" width="200" height="200"><path d="M627.5 633h-219c-19.3 0-35 15.7-35 35s15.7 35 35 35h218.9c19.3 0 35-15.7 35-35s-15.6-35-34.9-35z" p-id="7011" fill="#515151"></path><path d="M883.6 283.9L561.1 100.8c-31.2-17.7-69.9-17.6-101 0.2L144.9 281.9c-32.3 18.5-52.3 53.4-52.3 91V834c0 57.7 46.2 104.6 103 104.6h637.7c56.8 0 103-46.9 103-104.6V375.2c0.1-37.8-20.1-72.8-52.7-91.3zM867.2 834c0 19.5-15.2 35.4-33.8 35.4H195.7c-18.6 0-33.8-15.9-33.8-35.4V373c0-12.9 6.7-24.8 17.6-31l315.1-180.8c5.1-2.9 10.7-4.4 16.3-4.4 5.5 0 11.1 1.4 16.1 4.3l322.6 183.1c10.9 6.2 17.7 18.1 17.7 31.1V834z" p-id="7012" fill="#515151"></path></svg>